<svg xmlns="http://www.w3.org/2000/svg" viewBox="0 0 318.15 32.87"><defs><style>.cls-1{fill:#fff;}.cls-2{fill:#f90;}</style></defs><title>Asset 3</title><g id="Layer_2" data-name="Layer 2"><g id="Layer_1-2" data-name="Layer 1"><path class="cls-1" d="M75.42,20.45a10.84,10.84,0,0,1-.73,4.14,9,9,0,0,1-2,3,9.47,9.47,0,0,1-3,2,12.92,12.92,0,0,1-3.65.94c-7.81.86-11.72,1.33-19.52,2.32,0-10.72,0-16.08,0-26.8,7.8-1,11.71-1.35,19.52-2a10.26,10.26,0,0,1,3,.18,6.23,6.23,0,0,1,2.43,1.07,5.34,5.34,0,0,1,1.63,2,6.62,6.62,0,0,1,.59,2.92,6,6,0,0,1-.71,3A3.74,3.74,0,0,1,71.28,15a3.57,3.57,0,0,1,1.5.47,4.71,4.71,0,0,1,1.32,1.11,5.72,5.72,0,0,1,.94,1.67A6.33,6.33,0,0,1,75.42,20.45Zm-9-8.68c0-.71-.21-1.17-.64-1.37a3,3,0,0,0-1.55-.23c-4.25.36-6.38.56-10.63,1,0,1.51,0,2.26,0,3.76,4.25-.47,6.38-.67,10.63-1.06a3,3,0,0,0,1.55-.55A1.82,1.82,0,0,0,66.39,11.77Zm1.82,9.73q0-2.52-3.59-2.17c-4.42.44-6.63.68-11.05,1.19,0,2.21,0,3.32,0,5.54,4.42-.53,6.63-.79,11.05-1.26a4.75,4.75,0,0,0,2.69-1A2.92,2.92,0,0,0,68.21,21.5Z" transform="translate(-46.54)"/><path class="cls-1" d="M99.91,27.27c-2.52-3.58-3.78-5.2-6.3-8.52l-5.32.39c0,3.55,0,5.33,0,9.15L81.22,29c0-10.79,0-15,0-25.8,7.83-.39,11.75-.51,19.59-.73a9,9,0,0,1,2.94.39,6.66,6.66,0,0,1,2.44,1.36,6.55,6.55,0,0,1,1.66,2.33,8,8,0,0,1,.61,3.23,9.72,9.72,0,0,1-.43,2.94A7.54,7.54,0,0,1,106.85,15a6.2,6.2,0,0,1-1.78,1.6,4.93,4.93,0,0,1-2.24.68l-1.28.08c3,3.54,4.57,5.25,7.61,9.14C105.46,26.81,103.61,27,99.91,27.27Zm1.7-16.89A1.83,1.83,0,0,0,101,8.87a2.37,2.37,0,0,0-1.63-.47c-4.43.17-6.65.26-11.08.48v4.53c4.49-.27,6.74-.39,11.23-.61a2.4,2.4,0,0,0,1.45-.59A2.26,2.26,0,0,0,101.61,10.38Z" transform="translate(-46.54)"/><path class="cls-1" d="M139.05,24.61c-.87-1.85-1.3-2.7-2.16-4.35-5.29.28-7.94.42-13.23.74-.87,1.78-1.3,2.7-2.16,4.65-3.47.23-5.21.35-8.68.6,4.31-8.39,9.45-16.31,14-24.59l7.16-.16c5.57,10.46,8.36,12.34,13.93,22.67C144.34,24.34,142.58,24.43,139.05,24.61ZM130.27,8.24c-1.66,3.17-2.49,4.63-4.14,7.75l8.26-.39C132.74,12.69,131.92,11.31,130.27,8.24Z" transform="translate(-46.54)"/><path class="cls-1" d="M181.3,23.57c-8.54-5.82-12.82-7.75-21.36-12.16V23.68l-7,.27V.66l.88,0c8.55,5.5,12.83,7.4,21.39,11.8,0-4.47,0-6.46,0-12.06l7-.15c0,10.77,0,12.42,0,23.34Z" transform="translate(-46.54)"/><path class="cls-1" d="M218.84,11.28a10.1,10.1,0,0,1-1.21,5.06A11.24,11.24,0,0,1,214.42,20a14,14,0,0,1-4.64,2.18,21.26,21.26,0,0,1-5.49.71c-6.23,0-9.34,0-15.57.11,0-10.57,0-12.28,0-22.86C194.94,0,198.06,0,204.28,0a23.42,23.42,0,0,1,5.46.63,13.82,13.82,0,0,1,4.65,2,10.61,10.61,0,0,1,3.23,3.54A10.08,10.08,0,0,1,218.84,11.28Zm-7.23-.05a4.76,4.76,0,0,0-2.09-4.15c-1.39-1-3.55-1.48-6.46-1.48l-7.26,0c0,4.89,0,6.78,0,11.66l7.26,0a11,11,0,0,0,6.38-1.57A5.14,5.14,0,0,0,211.61,11.23Z" transform="translate(-46.54)"/><path class="cls-2" d="M251.31,8.37,250.54,8A22.14,22.14,0,0,0,246,6.5a28.42,28.42,0,0,0-5.58-.69c-6.26-.17-9.4,1.91-9.4,5.86a5.34,5.34,0,0,0,2.44,4.56,12.47,12.47,0,0,0,6.94,1.88A22.77,22.77,0,0,0,243,18a12.39,12.39,0,0,0,2.44-.45c0-2.56,0-3.72,0-6.12l7.08.24c0,3.93,0,5.73,0,10.42q-1,.34-2.44.67t-3.11.57q-1.68.24-3.52.36t-3.65.08a25,25,0,0,1-5.9-.87,16.6,16.6,0,0,1-5.13-2.36,12.52,12.52,0,0,1-3.6-3.8,9.8,9.8,0,0,1-1.36-5.23,9.65,9.65,0,0,1,.7-3.78,10.33,10.33,0,0,1,1.89-3,11.7,11.7,0,0,1,2.78-2.24A17.2,17.2,0,0,1,232.53,1a19.87,19.87,0,0,1,3.65-.81,24,24,0,0,1,3.6-.19,26.88,26.88,0,0,1,12.08,3l.88.47C252.17,5.55,251.88,6.51,251.31,8.37Z" transform="translate(-46.54)"/><path class="cls-2" d="M258.93,24c0-10.56,0-12.29,0-22.86,2.83.12,4.25.17,7.08.26,0,10.5,0,12.43,0,22.92Z" transform="translate(-46.54)"/><path class="cls-2" d="M284.48,19.84c5.69.32,8.54.49,14.23.86v5.58c-10.77-.79-16.16-1.13-26.94-1.69V23.48c5.87-7.16,8.8-9.37,14.66-16.12-5.53-.15-8.3-.22-13.84-.39,0-2,0-3.08,0-5.4,10.6.29,15.89.36,26.48.59V3.29C293.24,10.74,290.32,13.31,284.48,19.84Z" transform="translate(-46.54)"/><path class="cls-2" d="M304.71,26.74c0-10.58,0-13.85,0-24.44,10.22.24,15.33.38,25.53.88V8.8c-7.38-.42-11.08-.58-18.47-.85v3.41c7.39.34,11.08.53,18.47,1v5.4c-7.38-.58-11.08-.83-18.47-1.28v5.34c7.39.55,11.08.86,18.47,1.53V29C320,28,314.93,27.53,304.71,26.74Z" transform="translate(-46.54)"/><path class="cls-2" d="M355.46,31.73c-2.51-4.15-3.77-6.2-6.29-10.23L343.85,21c0,3.72,0,5.58,0,9.44l-7.05-.75c0-10.82,0-15.29,0-26.11,7.83.47,11.74.77,19.56,1.58a9.29,9.29,0,0,1,2.93.79,7.68,7.68,0,0,1,2.43,1.75,8.14,8.14,0,0,1,1.65,2.72,10.34,10.34,0,0,1,.61,3.67,11.78,11.78,0,0,1-.43,3.27,7.44,7.44,0,0,1-1.18,2.48,4.9,4.9,0,0,1-1.77,1.49,4,4,0,0,1-2.23.35l-1.28-.15c3,4.51,4.55,6.82,7.59,11.38C361,32.4,359.15,32.17,355.46,31.73Zm1.7-18.06a2.4,2.4,0,0,0-.62-1.75,2.54,2.54,0,0,0-1.62-.74c-4.42-.44-6.63-.64-11.06-1v4.74c4.48.39,6.73.61,11.21,1.08a2,2,0,0,0,1.44-.42A2.32,2.32,0,0,0,357.16,13.67Z" transform="translate(-46.54)"/></g></g></svg>